<?xml version="1.0" encoding="utf-8"?>
<!-- Generator: Adobe Illustrator 16.0.3, SVG Export Plug-In . SVG Version: 6.00 Build 0)  -->
<!DOCTYPE svg PUBLIC "-//W3C//DTD SVG 1.1//EN" "http://www.w3.org/Graphics/SVG/1.1/DTD/svg11.dtd">
<svg version="1.1" id="Layer_1" xmlns="http://www.w3.org/2000/svg" xmlns:xlink="http://www.w3.org/1999/xlink" x="0px" y="0px"
	 width="250px" height="175px" viewBox="0 0 250 175" enable-background="new 0 0 250 175" xml:space="preserve">
<g>
	<g>
		<g>
			<defs>
				<path id="SVGID_1_" d="M243.572-37.784c-21.074-4.87-56.66-8.846-118.572-9.447c-61.912,0.6-97.498,4.577-118.576,9.447
					C41.14-68.678,80.032-86.538,125-86.54C169.969-86.538,208.859-68.678,243.572-37.784z M271.244-9.32
					C264.578-15.716,246.842-34.954,125-36.134C3.156-34.954-14.578-15.718-21.246-9.32h-0.004V5.89H125h146.25V-9.32H271.244
					L271.244-9.32z M348.219,224.441h-446.44v6.262h446.44V224.441z M375,242.27h-500v19.27h500V242.27z M344.797,19.954H-98.222
					V34.74h443.019V19.954L344.797,19.954z M-56.9,47.896h-11.084V210.91H-56.9V47.896z M310.436,48.594h-11.088v162.281h11.088
					V48.594z M101.694,192.574h-6.927c0,7.016-6.523,12.723-14.544,12.723c-8.02,0-14.544-5.711-14.544-12.723h-6.926
					c0,10.836,9.63,19.652,21.474,19.652C92.072,212.227,101.694,203.41,101.694,192.574z M65.676,47.058h-6.928v145.517h6.928
					V47.058z M101.694,47.058h-6.927v145.517h6.927V47.058z M2.626,126.852c-0.054-0.035-5.642-3.359-10.334-11.324
					c-4.694-7.973-4.47-18.457-4.468-18.66V47.5h-6.931l0.003,49.262c-0.013,0.504-0.303,12.555,5.422,22.277
					c5.689,9.664,12.569,13.652,12.859,13.82L2.626,126.852z M15.472,119.039c5.729-9.723,5.435-21.773,5.422-22.172V47.5h-6.928
					l0.002,49.465c0.002,0.109,0.23,10.59-4.464,18.563c-4.692,7.965-10.28,11.293-10.322,11.313l3.431,6.02
					C2.9,132.691,9.786,128.703,15.472,119.039z M-12.174,162.738c-0.002-0.113-0.227-10.598,4.468-18.57
					c4.688-7.965,10.276-11.289,10.316-11.305l-3.427-6.023c-0.292,0.164-7.172,4.156-12.861,13.82
					c-5.727,9.723-5.435,21.766-5.424,22.172v49.371h6.93v-49.465H-12.174z M20.894,162.934c0.017-0.508,0.307-12.551-5.418-22.277
					C9.786,130.996,2.9,127.004,2.61,126.84l-3.44,6.008c0.052,0.031,5.642,3.352,10.336,11.32s4.466,18.457,4.462,18.664v49.371
					h6.929L20.894,162.934z M17.416,68.989h-33.074v6.926h33.074V68.989z M17.438,95.582h-33.097v6.934h33.097V95.582z
					 M17.438,155.086h-32.887v6.934h32.887V155.086z M17.416,182.262h-33.074v6.934h33.074V182.262z M164.51,210.91v-34.805
					l-10.986-5.652l29.291-17.91l-28.826-14.168l28.686-15.625l-29.041-17.012l28.336-14.66L164.51,77.13V48.044h-6.926v32.412
					l11.725,9.376l-30.023,15.527l29.311,17.176l-29.67,16.156l29.527,14.52l-29.059,17.758l18.184,9.367l0.006,30.582h6.926V210.91
					L164.51,210.91z M260.109,46.76v68.721l-21.338-28.751l-21.117,28.126V46.666l21.146,28.483L260.109,46.76z M234.461,80.927
					l-9.875-13.305v26.46L234.461,80.927z M253.18,67.53l-10.07,13.42l10.07,13.573V67.53z M260.109,95.152v68.723l-21.338-28.746
					l-21.117,28.113V95.059l21.146,28.48L260.109,95.152z M234.461,129.32l-9.875-13.301v26.461L234.461,129.32z M253.18,115.922
					l-10.07,13.422l10.07,13.57V115.922z M260.109,143.543v68.73l-21.338-28.762l-21.117,28.125v-68.184l21.146,28.484
					L260.109,143.543z M234.461,177.711l-9.875-13.305v26.461L234.461,177.711z M253.18,164.316l-10.07,13.418l10.07,13.574V164.316
					z M98.23,124.063H62.21v6.93H98.23V124.063z"/>
			</defs>
			<clipPath id="SVGID_2_">
				<use xlink:href="#SVGID_1_"  overflow="visible"/>
			</clipPath>
			
				<linearGradient id="SVGID_3_" gradientUnits="userSpaceOnUse" x1="337.4287" y1="770.2891" x2="337.4287" y2="1180.0508" gradientTransform="matrix(1 0 0 1 -206 -887)">
				<stop  offset="0" style="stop-color:#39B54A"/>
				<stop  offset="1" style="stop-color:#00AEEF"/>
			</linearGradient>
			<rect x="-172.736" y="-116.71" clip-path="url(#SVGID_2_)" fill="url(#SVGID_3_)" width="608.33" height="409.761"/>
		</g>
	</g>
</g>
</svg>
