<?xml version="1.0" encoding="utf-8"?>
<!-- Generator: Adobe Illustrator 16.0.0, SVG Export Plug-In . SVG Version: 6.00 Build 0)  -->
<!DOCTYPE svg PUBLIC "-//W3C//DTD SVG 1.1//EN" "http://www.w3.org/Graphics/SVG/1.1/DTD/svg11.dtd">
<svg version="1.1" id="Layer_1" xmlns="http://www.w3.org/2000/svg" xmlns:xlink="http://www.w3.org/1999/xlink" x="0px" y="0px"
	 width="432px" height="432px" viewBox="0 0 432 432" enable-background="new 0 0 432 432" xml:space="preserve">
<linearGradient id="SVGID_1_" gradientUnits="userSpaceOnUse" x1="166.1338" y1="37.001" x2="445.8672" y2="37.001" gradientTransform="matrix(1 0 0 -1 -90 253)">
	<stop  offset="0" style="stop-color:#29ABE2"/>
	<stop  offset="0.9678" style="stop-color:#8CC541"/>
</linearGradient>
<path fill="url(#SVGID_1_)" d="M349.958,274.957H297.51V179.94c0-3.264-2.646-5.908-5.908-5.908c-3.266,0-5.908,2.645-5.908,5.908
	v93.731L147.587,146.783c-1.089-1.002-2.516-1.558-3.997-1.558H82.043c-3.264,0-5.909,2.645-5.909,5.908
	c0,3.265,2.645,5.909,5.909,5.909h50.828v96.672c0,3.263,2.645,5.908,5.909,5.908c3.264,0,5.909-2.646,5.909-5.908v-93.549
	l136.104,125.05c1.085,1.004,2.516,1.559,3.993,1.559h65.173c3.262,0,5.908-2.646,5.908-5.908
	C355.866,277.604,353.22,274.957,349.958,274.957z"/>
<linearGradient id="SVGID_2_" gradientUnits="userSpaceOnUse" x1="165.4668" y1="-2.2197" x2="294.665" y2="-2.2197" gradientTransform="matrix(1 0 0 -1 -90 253)">
	<stop  offset="0" style="stop-color:#29ABE2"/>
	<stop  offset="0.9678" style="stop-color:#8CC541"/>
</linearGradient>
<path fill="url(#SVGID_2_)" d="M139.017,286.773c-0.006,0-0.012,0-0.018,0l-57.64-0.165c-3.262-0.013-5.901-2.662-5.892-5.929
	c0.01-3.254,2.652-5.889,5.909-5.889c0.006,0,0.012,0,0.018,0l55.442,0.156l58.072-49.857c2.471-2.119,6.206-1.844,8.332,0.635
	c2.125,2.478,1.841,6.209-0.635,8.332l-59.739,51.289C141.794,286.266,140.428,286.773,139.017,286.773z"/>
<linearGradient id="SVGID_3_" gradientUnits="userSpaceOnUse" x1="313.0605" y1="75.9736" x2="442.2549" y2="75.9736" gradientTransform="matrix(1 0 0 -1 -90 253)">
	<stop  offset="0" style="stop-color:#29ABE2"/>
	<stop  offset="0.9678" style="stop-color:#8CC541"/>
</linearGradient>
<path fill="url(#SVGID_3_)" d="M288.705,145.474c0.004,0,0.012,0,0.02,0l57.641,0.163c3.263,0.01,5.9,2.662,5.89,5.926
	c-0.012,3.257-2.649,5.892-5.908,5.892c-0.004,0-0.012,0-0.02,0l-55.44-0.157l-58.07,49.858c-2.471,2.119-6.209,1.843-8.332-0.635
	c-2.123-2.476-1.84-6.207,0.635-8.332l59.736-51.29C285.928,145.979,287.293,145.474,288.705,145.474z"/>
</svg>
