<?xml version="1.0" encoding="utf-8"?>
<!-- Generator: Adobe Illustrator 16.0.3, SVG Export Plug-In . SVG Version: 6.00 Build 0)  -->
<!DOCTYPE svg PUBLIC "-//W3C//DTD SVG 1.1//EN" "http://www.w3.org/Graphics/SVG/1.1/DTD/svg11.dtd">
<svg version="1.1" id="Layer_1" xmlns="http://www.w3.org/2000/svg" xmlns:xlink="http://www.w3.org/1999/xlink" x="0px" y="0px"
	 width="250px" height="50px" viewBox="0 0 250 50" enable-background="new 0 0 250 50" xml:space="preserve">
<g>
	<defs>
		<path id="SVGID_1_" d="M125,174.039c-22.486,0-41.931-8.93-59.289-24.379c10.539,2.436,28.332,4.424,59.289,4.727
			c30.957-0.301,48.748-2.291,59.287-4.727C166.931,165.109,147.486,174.039,125,174.039z M198.125,135.43v-7.607H125H51.875v7.607
			h0.002c3.333,3.197,12.2,12.816,73.124,13.406c60.921-0.59,69.788-10.209,73.122-13.406H198.125z M236.611,15.42H13.388v3.13
			h223.22v-3.13H236.611z M250,0H0v9.635h250V0z M234.898,113.4H13.388v7.395h221.51V113.4L234.898,113.4z M34.051,25.316H28.51
			v81.504h5.542V25.316z M217.716,25.333h-5.541v81.139h5.541V25.333z M102.61,24.657c-5.92,0-10.737,4.407-10.737,9.825h3.464
			c0-3.506,3.262-6.361,7.273-6.361c4.012,0,7.271,2.856,7.271,6.361h3.464C113.346,29.064,108.531,24.657,102.61,24.657z
			 M95.337,34.482h-3.464v72.76h3.464V34.482z M113.346,34.482h-3.464v72.76h3.464V34.482z M62.091,64.34
			c-0.146,0.084-3.585,2.078-6.43,6.912c-2.863,4.859-2.718,10.885-2.712,11.137l-0.001,24.633h3.466V82.336
			c-0.001-0.102-0.113-5.344,2.235-9.33c2.345-3.982,5.138-5.646,5.165-5.66L62.091,64.34z M63.807,64.34l-1.715,3.01
			c0.022,0.01,2.815,1.674,5.161,5.656c2.348,3.986,2.234,9.229,2.232,9.281l-0.002,24.734h3.466V82.336
			c0.006-0.199,0.153-6.225-2.711-11.084C67.392,66.418,63.95,64.424,63.807,64.34z M56.413,24.67h-3.464v24.681
			c-0.005,0.205-0.149,6.227,2.713,11.09c2.845,4.828,6.284,6.826,6.431,6.908l1.713-3.012c-0.02-0.01-2.813-1.67-5.156-5.654
			c-2.348-3.986-2.236-9.23-2.235-9.285V24.67H56.413z M72.947,24.67h-3.465v24.681c0.003,0.105,0.116,5.348-2.23,9.334
			c-2.346,3.984-5.14,5.645-5.168,5.66l1.721,3.004c0.146-0.08,3.587-2.078,6.432-6.908c2.862-4.859,2.717-10.885,2.71-11.139
			L72.947,24.67z M71.208,92.813H54.67v3.463h16.537V92.813z M71.219,79.512H54.67v3.467h16.548V79.512z M71.219,49.76H54.776v3.467
			h16.443V49.76z M71.208,36.173H54.67v3.466h16.537V36.173z M141.291,25.316l-0.001,15.285l-9.094,4.686l14.531,8.879
			l-14.767,7.262l14.835,8.078l-14.657,8.59l15.012,7.762l-5.861,4.686v16.205h3.465V92.207l8.728-6.973l-14.167-7.33l14.521-8.508
			l-14.343-7.811l14.412-7.084l-14.647-8.955l5.495-2.828V25.316H141.291z M181.901,93.193l-10.572,14.244V73.342l10.557,14.063
			l10.667-14.375v34.359L181.901,93.193z M174.795,83.729v13.229l4.938-6.65L174.795,83.729z M189.09,83.508l-5.038,6.787
			l5.038,6.707V83.508z M181.901,69l-10.572,14.24V49.146l10.557,14.059l10.667-14.373v34.361L181.901,69z M174.795,59.529v13.232
			l4.938-6.65L174.795,59.529z M189.09,59.313l-5.038,6.785l5.038,6.709V59.313z M181.901,44.801l-10.572,14.244V24.951
			l10.557,14.061l10.667-14.377V59L181.901,44.801z M174.795,35.336v13.232l4.938-6.654L174.795,35.336z M189.09,35.116
			l-5.038,6.786l5.038,6.711V35.116z M111.615,65.273h-18.01v3.467h18.01V65.273z"/>
	</defs>
	<clipPath id="SVGID_2_">
		<use xlink:href="#SVGID_1_"  overflow="visible"/>
	</clipPath>
	
		<linearGradient id="SVGID_3_" gradientUnits="userSpaceOnUse" x1="334.2148" y1="498.3027" x2="334.2148" y2="293.4238" gradientTransform="matrix(1 0 0 1 -206 -294.5215)">
		<stop  offset="0.7931" style="stop-color:#37B34A;stop-opacity:0"/>
		<stop  offset="0.8338" style="stop-color:#2AB272;stop-opacity:0.0393"/>
		<stop  offset="0.8866" style="stop-color:#1BB09E;stop-opacity:0.0904"/>
		<stop  offset="0.9339" style="stop-color:#10AFBF;stop-opacity:0.1361"/>
		<stop  offset="0.9733" style="stop-color:#09AED3;stop-opacity:0.1742"/>
		<stop  offset="1" style="stop-color:#07AEDA;stop-opacity:0.2"/>
	</linearGradient>
	<rect x="-23.867" y="-1.099" clip-path="url(#SVGID_2_)" fill="url(#SVGID_3_)" width="304.163" height="204.88"/>
</g>
</svg>
