<?xml version="1.0" encoding="utf-8"?>
<!-- Generator: Adobe Illustrator 16.0.0, SVG Export Plug-In . SVG Version: 6.00 Build 0)  -->
<!DOCTYPE svg PUBLIC "-//W3C//DTD SVG 1.1//EN" "http://www.w3.org/Graphics/SVG/1.1/DTD/svg11.dtd">
<svg version="1.1" id="Layer_1" xmlns="http://www.w3.org/2000/svg" xmlns:xlink="http://www.w3.org/1999/xlink" x="0px" y="0px"
	 width="300px" height="150px" viewBox="66 141 300 150" enable-background="new 66 141 300 150" xml:space="preserve">
<g>
	
		<linearGradient id="SVGID_1_" gradientUnits="userSpaceOnUse" x1="256.4668" y1="575" x2="536.2002" y2="575" gradientTransform="matrix(1 0 0 1 -180 -359)">
		<stop  offset="0" style="stop-color:#29ABE2"/>
		<stop  offset="0.9678" style="stop-color:#8CC541"/>
	</linearGradient>
	<path fill="url(#SVGID_1_)" d="M350.291,274.958h-52.448V179.94c0-3.264-2.646-5.907-5.908-5.907c-3.266,0-5.908,2.645-5.908,5.907
		v93.731L147.92,146.784c-1.089-1.002-2.516-1.559-3.997-1.559H82.376c-3.264,0-5.909,2.646-5.909,5.908
		c0,3.265,2.645,5.909,5.909,5.909h50.828v96.672c0,3.263,2.645,5.908,5.909,5.908c3.264,0,5.909-2.646,5.909-5.908v-93.549
		l136.104,125.05c1.085,1.004,2.516,1.559,3.993,1.559h65.173c3.262,0,5.908-2.646,5.908-5.907
		C356.199,277.604,353.553,274.958,350.291,274.958z"/>
	
		<linearGradient id="SVGID_2_" gradientUnits="userSpaceOnUse" x1="255.7998" y1="614.2207" x2="384.998" y2="614.2207" gradientTransform="matrix(1 0 0 1 -180 -359)">
		<stop  offset="0" style="stop-color:#29ABE2"/>
		<stop  offset="0.9678" style="stop-color:#8CC541"/>
	</linearGradient>
	<path fill="url(#SVGID_2_)" d="M139.35,286.774c-0.006,0-0.012,0-0.018,0l-57.64-0.166c-3.262-0.012-5.901-2.662-5.892-5.928
		c0.01-3.255,2.652-5.89,5.909-5.89c0.006,0,0.012,0,0.018,0l55.442,0.155l58.072-49.856c2.471-2.118,6.206-1.844,8.332,0.636
		c2.125,2.478,1.841,6.209-0.635,8.332l-59.739,51.289C142.127,286.267,140.761,286.774,139.35,286.774z"/>
	
		<linearGradient id="SVGID_3_" gradientUnits="userSpaceOnUse" x1="403.3955" y1="536.0273" x2="532.5889" y2="536.0273" gradientTransform="matrix(1 0 0 1 -180 -359)">
		<stop  offset="0" style="stop-color:#29ABE2"/>
		<stop  offset="0.9678" style="stop-color:#8CC541"/>
	</linearGradient>
	<path fill="url(#SVGID_3_)" d="M289.038,145.475c0.004,0,0.012,0,0.02,0l57.642,0.163c3.263,0.01,5.899,2.662,5.89,5.926
		c-0.012,3.257-2.648,5.893-5.908,5.893c-0.004,0-0.012,0-0.02,0l-55.439-0.157l-58.07,49.858c-2.471,2.118-6.209,1.843-8.332-0.636
		c-2.123-2.476-1.84-6.207,0.635-8.332l59.736-51.29C286.261,145.979,287.626,145.475,289.038,145.475z"/>
</g>
</svg>
